<?xml version="1.0" standalone="no"?><!DOCTYPE svg PUBLIC "-//W3C//DTD SVG 1.1//EN" "http://www.w3.org/Graphics/SVG/1.1/DTD/svg11.dtd"><svg t="1664157076941" class="icon" viewBox="0 0 1024 1024" version="1.1" xmlns="http://www.w3.org/2000/svg" p-id="3472" width="100" height="100" xmlns:xlink="http://www.w3.org/1999/xlink"><path d="M477.6 284.8h48v480h-48z" fill="#2F5028" p-id="3473"></path><path d="M864 386.4c-40.8-21.6-55.2-76-55.2-76s52.8-20 93.6 1.6 55.2 76 55.2 76-52 20-93.6-1.6z" fill="#4EA235" p-id="3474"></path><path d="M802.4 307.2l4-1.6c2.4-0.8 55.2-20.8 98.4 1.6 42.4 22.4 57.6 76.8 57.6 79.2l0.8 4.8-4 1.6c-2.4 0.8-55.2 20.8-98.4-1.6-42.4-22.4-56.8-76.8-57.6-79.2l-0.8-4.8z m148.8 76.8c-4-13.6-19.2-51.2-51.2-68-32-16.8-71.2-6.4-84.8-2.4 4 13.6 19.2 51.2 51.2 68 32 16.8 72 7.2 84.8 2.4z" fill="#3D7235" p-id="3475"></path><path d="M874.4 346.4s-27.2-24.8-61.6-34.4" fill="#4EA235" p-id="3476"></path><path d="M808 309.6c0.8-2.4 3.2-3.2 5.6-2.4 36 9.6 63.2 34.4 64 35.2 2.4 1.6 2.4 5.6 0 7.2-1.6 2.4-5.6 2.4-7.2 0 0 0-26.4-24-60-32.8-3.2-0.8-4.8-3.2-4-6.4 1.6 0 1.6 0 1.6-0.8z" fill="#3D7235" p-id="3477"></path><path d="M903.2 309.6c-42.4 18.4-93.6-4.8-93.6-4.8s17.6-53.6 60-72 93.6 4.8 93.6 4.8-17.6 53.6-60 72z" fill="#4EA235" p-id="3478"></path><path d="M803.2 307.2l1.6-4.8c0.8-2.4 19.2-56 63.2-75.2 44-19.2 96 4 97.6 4.8l4 1.6-1.6 4.8c-0.8 2.4-19.2 56-63.2 75.2-44 19.2-96-4-97.6-4.8l-4-1.6z m153.6-66.4c-12.8-4.8-52-17.6-84.8-3.2-32.8 14.4-50.4 51.2-55.2 64 12.8 4.8 52 17.6 84.8 3.2 32-14.4 49.6-51.2 55.2-64z" fill="#3D7235" p-id="3479"></path><path d="M878.4 276s-36.8 5.6-65.6 26.4" fill="#4EA235" p-id="3480"></path><path d="M808 304.8c-0.8-2.4 0-4.8 1.6-6.4 29.6-21.6 66.4-27.2 68-27.2 3.2 0 5.6 1.6 5.6 4.8 0.8 3.2-1.6 5.6-4.8 5.6 0 0-36 5.6-63.2 25.6-2.4 1.6-5.6 1.6-7.2-0.8 0.8-0.8 0-0.8 0-1.6z" fill="#3D7235" p-id="3481"></path><path d="M876 237.6c-16.8 43.2-68.8 63.2-68.8 63.2s-25.6-50.4-9.6-93.6c16.8-43.2 68.8-63.2 68.8-63.2s26.4 50.4 9.6 93.6z" fill="#4EA235" p-id="3482"></path><path d="M804.8 308l-2.4-4c-0.8-2.4-26.4-52.8-9.6-97.6 16.8-44.8 69.6-65.6 72-66.4l4-1.6 2.4 4c0.8 2.4 26.4 52.8 9.6 97.6-16.8 44.8-69.6 65.6-72 66.4l-4 1.6z m59.2-156.8c-12.8 5.6-48.8 24.8-61.6 58.4-12.8 33.6 1.6 72 7.2 84.8 12.8-5.6 48.8-24.8 61.6-58.4s-1.6-72-7.2-84.8z" fill="#3D7235" p-id="3483"></path><path d="M835.2 232s-21.6 29.6-27.2 65.6" fill="#4EA235" p-id="3484"></path><path d="M806.4 302.4c-2.4-0.8-4-3.2-3.2-5.6 4.8-36.8 27.2-66.4 28-68 1.6-2.4 4.8-3.2 7.2-0.8 2.4 1.6 3.2 4.8 0.8 7.2 0 0-20.8 29.6-25.6 63.2-0.8 3.2-3.2 4.8-5.6 4.8-0.8-0.8-0.8-0.8-1.6-0.8z" fill="#3D7235" p-id="3485"></path><path d="M779.2 210.4c28.8 36 20 92 20 92s-56-3.2-85.6-39.2-20-92-20-92 56 3.2 85.6 39.2z" fill="#4EA235" p-id="3486"></path><path d="M803.2 307.2h-4.8c-2.4 0-59.2-3.2-88.8-40.8-30.4-37.6-21.6-93.6-20.8-96l0.8-4.8h4.8c2.4 0 59.2 3.2 88.8 40.8 30.4 37.6 21.6 93.6 20.8 96l-0.8 4.8zM698.4 176.8c-1.6 13.6-3.2 55.2 19.2 82.4 22.4 28 62.4 35.2 76.8 36.8 1.6-13.6 3.2-55.2-19.2-82.4s-63.2-35.2-76.8-36.8z" fill="#3D7235" p-id="3487"></path><path d="M753.6 242.4s14.4 33.6 43.2 56" fill="#4EA235" p-id="3488"></path><path d="M799.2 302.4c-1.6 1.6-4.8 1.6-6.4 0-28.8-23.2-44-56.8-44.8-58.4-0.8-2.4 0-5.6 2.4-7.2 2.4-0.8 5.6 0 7.2 2.4 0 0 14.4 32.8 41.6 54.4 2.4 1.6 2.4 4.8 0.8 7.2 0 1.6 0 1.6-0.8 1.6z" fill="#3D7235" p-id="3489"></path><path d="M650.4 457.6c39.2-20 89.6-0.8 89.6-0.8s-13.6 52-52.8 72c-39.2 20-89.6 0.8-89.6 0.8s13.6-52 52.8-72z" fill="#4EA235" p-id="3490"></path><path d="M745.6 453.6l-0.8 4c-0.8 2.4-14.4 54.4-56 75.2-40.8 20.8-91.2 1.6-93.6 0.8l-4-1.6 0.8-4c0.8-2.4 14.4-54.4 56-75.2 40.8-20.8 91.2-1.6 93.6-0.8l4 1.6z m-142.4 72.8c12.8 4 50.4 13.6 80.8-1.6s44.8-52 48.8-64c-12.8-4-50.4-13.6-80.8 1.6s-44 51.2-48.8 64z" fill="#3D7235" p-id="3491"></path><path d="M675.2 487.2s34.4-7.2 60.8-28.8" fill="#4EA235" p-id="3492"></path><path d="M740.8 456c0.8 2.4 0.8 4.8-1.6 6.4-27.2 22.4-61.6 29.6-63.2 30.4-2.4 0.8-5.6-0.8-5.6-4-0.8-2.4 0.8-5.6 4-5.6 0 0 33.6-7.2 58.4-28 2.4-1.6 5.6-1.6 7.2 0.8 0.8-0.8 0.8 0 0.8 0z" fill="#3D7235" p-id="3493"></path><path d="M688.8 530.4c9.6-43.2 56-69.6 56-69.6s32 43.2 22.4 86.4c-9.6 43.2-56 69.6-56 69.6s-32-43.2-22.4-86.4z" fill="#4EA235" p-id="3494"></path><path d="M745.6 453.6l2.4 4c1.6 1.6 32.8 45.6 23.2 90.4-9.6 44.8-56 72-58.4 73.6l-4 2.4-2.4-4c-1.6-1.6-32.8-45.6-23.2-90.4 9.6-44.8 56-72 58.4-73.6l4-2.4z m-32.8 156c11.2-7.2 42.4-31.2 49.6-64 7.2-33.6-12-67.2-19.2-78.4-11.2 7.2-42.4 31.2-49.6 64s12 67.2 19.2 78.4z" fill="#3D7235" p-id="3495"></path><path d="M728 529.6s16-31.2 16-65.6" fill="#4EA235" p-id="3496"></path><path d="M744.8 459.2c2.4 0.8 4 2.4 4 4.8 0.8 35.2-15.2 66.4-16 68-1.6 2.4-4 3.2-6.4 2.4-2.4-1.6-3.2-4-2.4-6.4 0 0 16-30.4 15.2-63.2 0-2.4 2.4-4.8 4.8-4.8 0-0.8 0-0.8 0.8-0.8z" fill="#3D7235" p-id="3497"></path><path d="M759.2 548.8c-24.8-36.8-11.2-88.8-11.2-88.8s52.8 8 77.6 44.8c24.8 36.8 11.2 88.8 11.2 88.8s-53.6-8-77.6-44.8z" fill="#4EA235" p-id="3498"></path><path d="M744.8 454.4l4.8 0.8c2.4 0 56 8.8 80.8 46.4 25.6 38.4 12 90.4 11.2 92.8l-0.8 4-4.8-0.8c-2.4 0-56-8.8-80.8-46.4-25.6-38.4-12-90.4-11.2-92.8l0.8-4z m88 133.6c2.4-12.8 8-52-11.2-80-19.2-28.8-56.8-38.4-69.6-41.6-2.4 12.8-8 52 11.2 80s56.8 38.4 69.6 41.6z" fill="#3D7235" p-id="3499"></path><path d="M786.4 520.8s-11.2-33.6-36-56.8" fill="#4EA235" p-id="3500"></path><path d="M748 459.2c1.6-1.6 4.8-0.8 6.4 0.8 25.6 24 36.8 57.6 36.8 59.2 0.8 2.4-0.8 5.6-3.2 6.4-2.4 0.8-5.6-0.8-6.4-3.2 0 0-11.2-32.8-34.4-55.2-2.4-1.6-2.4-4.8 0-7.2 0-0.8 0-0.8 0.8-0.8z" fill="#3D7235" p-id="3501"></path><path d="M834.4 488.8c-44 2.4-82.4-35.2-82.4-35.2s33.6-42.4 77.6-44.8 82.4 35.2 82.4 35.2-33.6 42.4-77.6 44.8z" fill="#4EA235" p-id="3502"></path><path d="M745.6 453.6l2.4-3.2c1.6-1.6 35.2-44 81.6-46.4 45.6-2.4 84.8 35.2 86.4 36.8l3.2 3.2-2.4 3.2c-1.6 1.6-35.2 44-81.6 46.4-45.6 2.4-84-35.2-86.4-36.8l-3.2-3.2z m159.2-8.8c-10.4-8.8-40.8-32.8-75.2-30.4-34.4 1.6-61.6 29.6-71.2 39.2 10.4 8.8 40.8 32.8 75.2 30.4 34.4-2.4 62.4-29.6 71.2-39.2z" fill="#3D7235" p-id="3503"></path><path d="M823.2 451.2s-34.4-7.2-67.2 2.4" fill="#4EA235" p-id="3504"></path><path d="M751.2 453.6c0-2.4 1.6-4.8 4-4.8 33.6-9.6 68.8-2.4 69.6-2.4 2.4 0.8 4.8 3.2 4 5.6-0.8 2.4-3.2 4.8-5.6 4 0 0-33.6-7.2-64.8 2.4-2.4 0.8-5.6-0.8-6.4-3.2-0.8-0.8-0.8-1.6-0.8-1.6z" fill="#3D7235" p-id="3505"></path><path d="M744 607.2c24-39.2 78.4-48.8 78.4-48.8s16 53.6-8 92.8c-24 39.2-78.4 48.8-78.4 48.8s-15.2-53.6 8-92.8z" fill="#4EA235" p-id="3506"></path><path d="M826.4 552l1.6 4.8c0.8 2.4 16 56-8.8 96.8s-80 51.2-82.4 51.2l-4.8 0.8-1.6-4.8c-0.8-2.4-16-56 8.8-96.8s80-51.2 82.4-51.2l4.8-0.8zM740 693.6c13.6-3.2 52-15.2 70.4-45.6 18.4-30.4 12-70.4 8.8-83.2-13.6 3.2-52 15.2-70.4 45.6-18.4 29.6-12 69.6-8.8 83.2z" fill="#3D7235" p-id="3507"></path><path d="M783.2 620s26.4-24.8 37.6-58.4" fill="#4EA235" p-id="3508"></path><path d="M824 556.8c2.4 1.6 3.2 4 2.4 6.4-12 34.4-38.4 60-39.2 60.8-2.4 1.6-5.6 1.6-7.2 0-1.6-2.4-1.6-5.6 0-7.2 0 0 25.6-24.8 36.8-56.8 0.8-2.4 4-4 6.4-3.2h0.8z" fill="#3D7235" p-id="3509"></path><path d="M817.6 650.4c-15.2-43.2 11.2-92 11.2-92s51.2 20.8 66.4 64-11.2 92-11.2 92-51.2-20.8-66.4-64z" fill="#4EA235" p-id="3510"></path><path d="M826.4 552l4 1.6c2.4 0.8 53.6 22.4 69.6 67.2 16 44.8-10.4 94.4-12 96l-2.4 4-4-1.6c-2.4-0.8-53.6-22.4-69.6-67.2-16-44.8 10.4-94.4 12-96l2.4-4z m55.2 156c5.6-12.8 20.8-50.4 8.8-83.2-12-33.6-47.2-52.8-59.2-59.2-5.6 12.8-20.8 50.4-8.8 83.2 12 33.6 47.2 53.6 59.2 59.2z" fill="#3D7235" p-id="3511"></path><path d="M852 628.8s-2.4-36.8-21.6-66.4" fill="#4EA235" p-id="3512"></path><path d="M828.8 557.6c2.4-0.8 4.8 0 6.4 2.4 19.2 30.4 22.4 67.2 22.4 68.8 0 3.2-1.6 5.6-4.8 5.6-3.2 0-5.6-1.6-5.6-4.8 0 0-3.2-35.2-20.8-64-1.6-2.4-0.8-5.6 1.6-7.2 0-0.8 0-0.8 0.8-0.8z" fill="#3D7235" p-id="3513"></path><path d="M890.4 628.8c-41.6-19.2-57.6-72.8-57.6-72.8s51.2-21.6 92.8-2.4c41.6 19.2 57.6 72.8 57.6 72.8s-51.2 22.4-92.8 2.4z" fill="#4EA235" p-id="3514"></path><path d="M826.4 553.6l4-1.6c2.4-0.8 53.6-22.4 96.8-2.4 43.2 20 60 73.6 60.8 76l1.6 4.8-4 1.6c-2.4 0.8-53.6 22.4-96.8 2.4-43.2-20-60-73.6-60.8-76l-1.6-4.8z m149.6 69.6c-4.8-12.8-21.6-49.6-53.6-64.8-32-15.2-71.2-4-84 0.8 4.8 12.8 21.6 49.6 53.6 64.8 32 15.2 71.2 4 84-0.8z" fill="#3D7235" p-id="3515"></path><path d="M898.4 589.6s-28-24-62.4-31.2" fill="#4EA235" p-id="3516"></path><path d="M831.2 556c0.8-2.4 3.2-3.2 5.6-3.2 35.2 8 64 31.2 64.8 32 2.4 1.6 2.4 4.8 0.8 7.2-1.6 2.4-4.8 2.4-7.2 0.8 0 0-27.2-23.2-60.8-29.6-3.2-0.8-4.8-3.2-4-6.4 0.8 0 0.8 0 0.8-0.8z" fill="#3D7235" p-id="3517"></path><path d="M924 535.2c-37.6 26.4-92 13.6-92 13.6s7.2-55.2 44.8-81.6c37.6-26.4 92-13.6 92-13.6s-7.2 55.2-44.8 81.6z" fill="#4EA235" p-id="3518"></path><path d="M826.4 552.8l0.8-4.8c0-2.4 7.2-57.6 46.4-84.8 39.2-27.2 93.6-14.4 96-14.4l4.8 0.8-0.8 4.8c0 2.4-7.2 57.6-46.4 84.8-39.2 27.2-93.6 14.4-96 14.4l-4.8-0.8z m136-95.2c-13.6-2.4-53.6-6.4-83.2 13.6-28.8 20-39.2 59.2-41.6 72.8 13.6 2.4 53.6 6.4 83.2-13.6s39.2-59.2 41.6-72.8z" fill="#3D7235" p-id="3519"></path><path d="M893.6 508s-34.4 12-58.4 38.4" fill="#4EA235" p-id="3520"></path><path d="M831.2 548.8c-1.6-1.6-1.6-4.8 0.8-6.4 24.8-27.2 59.2-39.2 60.8-40 2.4-0.8 5.6 0.8 6.4 3.2 0.8 2.4-0.8 5.6-3.2 6.4 0 0-33.6 12-56 36.8-1.6 2.4-5.6 2.4-7.2 0-0.8 0.8-1.6 0.8-1.6 0z" fill="#3D7235" p-id="3521"></path><path d="M389.6 452m-66.4 0a66.4 66.4 0 1 0 132.8 0 66.4 66.4 0 1 0-132.8 0Z" fill="#F5A518" p-id="3522"></path><path d="M389.6 508.8c-32 0-57.6-25.6-57.6-57.6 0-1.6 0.8-2.4 2.4-2.4 1.6 0 2.4 0.8 2.4 2.4 0 28.8 24 52.8 52.8 52.8 1.6 0 2.4 0.8 2.4 2.4-0.8 1.6-1.6 2.4-2.4 2.4z" fill="#FAD7A0" p-id="3523"></path><path d="M500.8 521.6C460 492.8 453.6 432 453.6 432s59.2-12.8 100 16c40.8 29.6 46.4 89.6 46.4 89.6s-59.2 13.6-99.2-16z" fill="#4EA235" p-id="3524"></path><path d="M447.2 428l4.8-0.8c2.4-0.8 62.4-12.8 104 17.6 41.6 30.4 48.8 91.2 48.8 93.6l0.8 4.8-4.8 0.8c-2.4 0.8-62.4 12.8-104-17.6C455.2 496 448 435.2 448 432.8l-0.8-4.8z m146.4 105.6c-2.4-15.2-12.8-57.6-44-80s-75.2-18.4-89.6-16c2.4 15.2 12.8 57.6 44 80 31.2 21.6 74.4 17.6 89.6 16z" fill="#3D7235" p-id="3525"></path><path d="M517.6 480.8s-24.8-31.2-60.8-46.4" fill="#4EA235" p-id="3526"></path><path d="M452.8 431.2c1.6-2.4 4-3.2 6.4-1.6 36.8 15.2 61.6 46.4 62.4 48 1.6 2.4 1.6 5.6-0.8 8-2.4 1.6-5.6 1.6-8-0.8 0 0-24.8-30.4-58.4-44.8-3.2-1.6-4-4.8-3.2-7.2 0.8-0.8 1.6-0.8 1.6-1.6z" fill="#3D7235" p-id="3527"></path><path d="M553.6 445.6c-48 12.8-99.2-20-99.2-20s27.2-54.4 75.2-67.2c48-12.8 99.2 20 99.2 20s-26.4 54.4-75.2 67.2z" fill="#4EA235" p-id="3528"></path><path d="M448 428l2.4-4.8c0.8-2.4 28.8-56.8 79.2-69.6 50.4-13.6 101.6 19.2 103.2 20.8l4 2.4-2.4 4.8c-0.8 2.4-28.8 56.8-79.2 69.6-50.4 13.6-101.6-19.2-103.2-20.8l-4-2.4z m173.6-47.2c-12.8-7.2-52.8-26.4-89.6-16.8-36.8 10.4-61.6 46.4-69.6 59.2 12.8 7.2 52.8 26.4 89.6 16.8 37.6-9.6 61.6-46.4 69.6-59.2z" fill="#3D7235" p-id="3529"></path><path d="M532.8 406.4s-40 0-73.6 17.6" fill="#4EA235" p-id="3530"></path><path d="M453.6 426.4c-0.8-2.4 0.8-4.8 3.2-6.4 35.2-18.4 75.2-18.4 76.8-18.4 3.2 0 5.6 2.4 5.6 5.6 0 3.2-2.4 5.6-5.6 5.6 0 0-39.2 0-71.2 17.6-2.4 1.6-6.4 0.8-8-2.4-0.8-0.8-0.8-1.6-0.8-1.6z" fill="#3D7235" p-id="3531"></path><path d="M536.8 365.6c-24.8 43.2-83.2 56.8-83.2 56.8s-19.2-57.6 4.8-100.8c24.8-43.2 83.2-56.8 83.2-56.8s19.2 56.8-4.8 100.8z" fill="#4EA235" p-id="3532"></path><path d="M449.6 428.8l-2.4-4.8c-0.8-2.4-20-60 5.6-105.6 25.6-44.8 84.8-58.4 87.2-59.2l4.8-0.8 1.6 4.8c0.8 2.4 20 60-5.6 105.6-25.6 44.8-84.8 58.4-87.2 59.2l-4 0.8z m88-157.6c-14.4 4-56 19.2-75.2 52.8-19.2 33.6-9.6 76.8-5.6 91.2 14.4-4 56-19.2 75.2-52.8s9.6-76.8 5.6-91.2z" fill="#3D7235" p-id="3533"></path><path d="M493.6 352.8s-28 28-39.2 65.6" fill="#4EA235" p-id="3534"></path><path d="M452 423.2c-2.4-1.6-3.2-4-2.4-6.4 11.2-37.6 39.2-66.4 40-68 2.4-2.4 5.6-2.4 8 0 2.4 2.4 2.4 5.6 0 8 0 0-27.2 28-37.6 63.2-0.8 3.2-4 4.8-7.2 4 0-0.8 0-0.8-0.8-0.8z" fill="#3D7235" p-id="3535"></path><path d="M437.6 320.8c25.6 43.2 6.4 100.8 6.4 100.8s-59.2-12-84.8-55.2c-25.6-43.2-6.4-100.8-6.4-100.8s59.2 12 84.8 55.2z" fill="#4EA235" p-id="3536"></path><path d="M448 428l-4.8-0.8c-2.4-0.8-62.4-12.8-88-57.6-26.4-44.8-8-103.2-7.2-105.6l1.6-4.8 4.8 0.8c2.4 0.8 62.4 12.8 88 57.6 26.4 44.8 8 103.2 7.2 105.6l-1.6 4.8zM356.8 272.8c-4 14.4-12 57.6 8 91.2 19.2 32.8 61.6 47.2 76 51.2 4-14.4 12-57.6-8-91.2s-61.6-47.2-76-51.2z" fill="#3D7235" p-id="3537"></path><path d="M404.8 351.2s10.4 38.4 36.8 66.4" fill="#4EA235" p-id="3538"></path><path d="M444.8 422.4c-2.4 1.6-4.8 0.8-7.2-0.8-27.2-28.8-37.6-67.2-38.4-68.8-0.8-3.2 0.8-6.4 4-7.2 3.2-0.8 6.4 0.8 7.2 4 0 0 10.4 37.6 35.2 64 2.4 2.4 2.4 5.6 0 8 0 0.8-0.8 0.8-0.8 0.8z" fill="#3D7235" p-id="3539"></path><path d="M539.2 128.8m-66.4 0a66.4 66.4 0 1 0 132.8 0 66.4 66.4 0 1 0-132.8 0Z" fill="#F5A518" p-id="3540"></path><path d="M539.2 185.6c-32 0-57.6-25.6-57.6-57.6 0-1.6 0.8-2.4 2.4-2.4 1.6 0 2.4 0.8 2.4 2.4 0 28.8 24 52.8 52.8 52.8 1.6 0 2.4 0.8 2.4 2.4s-1.6 2.4-2.4 2.4z" fill="#FAD7A0" p-id="3541"></path><path d="M120.8 460c38.4 22.4 48.8 76 48.8 76s-51.2 16-89.6-6.4c-38.4-22.4-48.8-76-48.8-76s51.2-16.8 89.6 6.4z" fill="#4EA235" p-id="3542"></path><path d="M176 538.4l-4 1.6c-2.4 0.8-54.4 16.8-94.4-6.4-40-23.2-51.2-76.8-51.2-79.2l-0.8-4.8 4-1.6c2.4 0 54.4-16 94.4 7.2 40 23.2 51.2 76.8 51.2 79.2l0.8 4zM37.6 457.6c3.2 12.8 16 50.4 45.6 68s68 10.4 81.6 7.2c-3.2-12.8-16-50.4-45.6-68-30.4-18.4-68.8-10.4-81.6-7.2z" fill="#3D7235" p-id="3543"></path><path d="M108.8 497.6s24.8 25.6 57.6 36" fill="#4EA235" p-id="3544"></path><path d="M171.2 536c-0.8 1.6-3.2 3.2-5.6 2.4-33.6-10.4-59.2-36-60-36.8-1.6-1.6-1.6-4.8 0-7.2 1.6-1.6 4.8-1.6 7.2 0 0 0 24.8 24.8 56 34.4 2.4 0.8 4 4 3.2 6.4 0 0-0.8 0-0.8 0.8z" fill="#3D7235" p-id="3545"></path><path d="M80 532c41.6-16 89.6 9.6 89.6 9.6S149.6 592 108 608c-41.6 16-89.6-9.6-89.6-9.6s20-51.2 61.6-66.4z" fill="#4EA235" p-id="3546"></path><path d="M176 538.4l-1.6 4c-0.8 2.4-20.8 52.8-64 68.8S18.4 602.4 16.8 601.6l-4.8-1.6 1.6-4c0.8-2.4 20.8-52.8 64-68.8s92 8.8 93.6 9.6l4.8 1.6zM25.6 595.2c12 5.6 48.8 19.2 81.6 7.2 32-12 51.2-46.4 56.8-59.2-12-5.6-48.8-19.2-81.6-7.2s-51.2 47.2-56.8 59.2z" fill="#3D7235" p-id="3547"></path><path d="M101.6 564.8s35.2-3.2 64-22.4" fill="#4EA235" p-id="3548"></path><path d="M171.2 540.8c0.8 2.4 0 4.8-1.6 5.6-29.6 19.2-64.8 23.2-66.4 23.2-2.4 0-5.6-1.6-5.6-4.8 0-2.4 1.6-5.6 4.8-5.6 0 0 34.4-3.2 61.6-21.6 2.4-1.6 5.6-0.8 7.2 1.6-0.8 0.8-0.8 0.8 0 1.6z" fill="#3D7235" p-id="3549"></path><path d="M102.4 601.6c18.4-40.8 69.6-57.6 69.6-57.6s22.4 49.6 4 90.4c-18.4 40.8-69.6 57.6-69.6 57.6s-22.4-49.6-4-90.4z" fill="#4EA235" p-id="3550"></path><path d="M174.4 538.4l1.6 4c0.8 2.4 23.2 52 4 94.4-18.4 42.4-70.4 59.2-72.8 60l-3.2 1.6-1.6-4c-0.8-2.4-23.2-52-4-94.4 18.4-42.4 70.4-59.2 72.8-60l3.2-1.6z m-64.8 147.2c12.8-4.8 48-21.6 62.4-52.8 13.6-31.2 2.4-68.8-2.4-81.6-12.8 4.8-48 21.6-62.4 52.8-14.4 31.2-2.4 68.8 2.4 81.6z" fill="#3D7235" p-id="3551"></path><path d="M141.6 609.6s22.4-27.2 28.8-61.6" fill="#4EA235" p-id="3552"></path><path d="M172 543.2c2.4 0.8 3.2 3.2 3.2 5.6-6.4 34.4-28.8 62.4-30.4 64-1.6 2.4-4.8 2.4-7.2 0.8-2.4-1.6-2.4-4.8-0.8-7.2 0 0 21.6-27.2 28-59.2 0.8-2.4 3.2-4.8 5.6-4h1.6z" fill="#3D7235" p-id="3553"></path><path d="M194.4 632.8C168 596.8 180 544 180 544s53.6 5.6 80 41.6 14.4 88.8 14.4 88.8-53.6-4.8-80-41.6z" fill="#4EA235" p-id="3554"></path><path d="M176 538.4l4.8 0.8c2.4 0 56 6.4 83.2 44 27.2 37.6 16 90.4 15.2 92.8l-0.8 4h-4.8c-2.4 0-56-6.4-83.2-44-27.2-37.6-16-90.4-15.2-92.8l0.8-4.8z m94.4 130.4c1.6-13.6 5.6-52.8-14.4-80-20-28-58.4-36.8-72-39.2-1.6 13.6-5.6 52.8 14.4 80s58.4 37.6 72 39.2z" fill="#3D7235" p-id="3555"></path><path d="M220.8 603.2s-12.8-33.6-38.4-56" fill="#4EA235" p-id="3556"></path><path d="M179.2 543.2c1.6-1.6 4.8-1.6 6.4 0 26.4 23.2 39.2 56.8 40 58.4 0.8 2.4 0 5.6-3.2 6.4-2.4 0.8-5.6 0-6.4-3.2 0 0-12.8-32.8-36.8-54.4-2.4-1.6-2.4-4.8-0.8-7.2 0 0.8 0 0 0.8 0z" fill="#3D7235" p-id="3557"></path><path d="M304 357.6c-39.2 31.2-99.2 20.8-99.2 20.8s3.2-60.8 42.4-92 99.2-20.8 99.2-20.8-3.2 60-42.4 92z" fill="#4EA235" p-id="3558"></path><path d="M199.2 383.2v-4.8c0-2.4 4-64 44.8-96 40.8-32.8 101.6-22.4 104-22.4l4.8 0.8v4.8c0 2.4-4 64-44.8 96-40.8 32.8-101.6 22.4-104 22.4l-4.8-0.8z m141.6-113.6c-15.2-1.6-59.2-3.2-89.6 20.8-30.4 24-38.4 68-40 83.2 15.2 1.6 59.2 3.2 89.6-20.8 30.4-24 38.4-68 40-83.2z" fill="#3D7235" p-id="3559"></path><path d="M269.6 329.6s-36.8 16-60.8 46.4" fill="#4EA235" p-id="3560"></path><path d="M204 379.2c-1.6-2.4-1.6-4.8 0-7.2 24.8-31.2 61.6-47.2 63.2-48 3.2-1.6 6.4 0 7.2 3.2 1.6 3.2 0 6.4-3.2 7.2 0 0-36 16-59.2 44.8-1.6 2.4-5.6 3.2-8 0.8v-0.8z" fill="#3D7235" p-id="3561"></path><path d="M245.6 284.8c-0.8 50.4-46.4 90.4-46.4 90.4s-44.8-40.8-44.8-91.2c0.8-50.4 46.4-90.4 46.4-90.4s44.8 40.8 44.8 91.2z" fill="#4EA235" p-id="3562"></path><path d="M199.2 383.2l-4-3.2c-1.6-1.6-47.2-43.2-46.4-95.2 0.8-52 46.4-92.8 48-94.4l4-3.2 4 3.2c1.6 1.6 47.2 43.2 46.4 95.2-0.8 52-46.4 92.8-48 94.4l-4 3.2z m1.6-181.6c-10.4 10.4-40 44-40.8 82.4 0 38.4 28.8 72 39.2 83.2 10.4-10.4 40-44 40.8-82.4s-28.8-72-39.2-83.2z" fill="#3D7235" p-id="3563"></path><path d="M201.6 294.4s-11.2 38.4-2.4 76.8" fill="#4EA235" p-id="3564"></path><path d="M199.2 376.8c-2.4 0-4.8-1.6-5.6-4.8-8.8-39.2 2.4-77.6 2.4-79.2 0.8-3.2 4-4.8 7.2-4 3.2 0.8 4.8 4 4 7.2 0 0-10.4 37.6-2.4 73.6 0.8 3.2-1.6 6.4-4 6.4-0.8 0.8-1.6 0.8-1.6 0.8z" fill="#3D7235" p-id="3565"></path><path d="M162.4 280c35.2 35.2 32 96.8 32 96.8s-60.8 3.2-96.8-32-32-96.8-32-96.8 60.8-3.2 96.8 32z" fill="#4EA235" p-id="3566"></path><path d="M200 381.6h-4.8c-2.4 0-64 3.2-100.8-33.6C56.8 312 60 250.4 60 248v-4.8h4.8c2.4 0 64-3.2 100.8 33.6 36.8 36.8 34.4 98.4 33.6 100.8l0.8 4z m-128.8-128c0 15.2 3.2 59.2 30.4 86.4 27.2 27.2 72 30.4 87.2 30.4 0-15.2-3.2-59.2-30.4-86.4-27.2-27.2-72-30.4-87.2-30.4z" fill="#3D7235" p-id="3567"></path><path d="M138.4 317.6s20 34.4 52.8 55.2" fill="#4EA235" p-id="3568"></path><path d="M195.2 377.6c-1.6 1.6-4.8 2.4-7.2 0.8-33.6-20.8-54.4-56-55.2-57.6-1.6-2.4-0.8-6.4 2.4-8 2.4-1.6 6.4-0.8 8 2.4 0 0 20 33.6 51.2 53.6 2.4 1.6 3.2 4.8 1.6 8l-0.8 0.8z" fill="#3D7235" p-id="3569"></path><path d="M92 364c48.8-12.8 99.2 20.8 99.2 20.8s-28 54.4-76 67.2S16 431.2 16 431.2s28-54.4 76-67.2z" fill="#4EA235" p-id="3570"></path><path d="M199.2 383.2l-2.4 4.8c-0.8 2.4-29.6 56.8-80 70.4-50.4 13.6-101.6-20-104-21.6l-4-2.4 2.4-4.8c0.8-2.4 29.6-56.8 80-70.4 50.4-13.6 101.6 20 104 21.6l4 2.4z m-176 46.4c13.6 7.2 52.8 27.2 90.4 16.8 37.6-9.6 62.4-46.4 70.4-60-13.6-7.2-52.8-27.2-90.4-16.8C56 379.2 31.2 416 23.2 429.6z" fill="#3D7235" p-id="3571"></path><path d="M112.8 404s40 0 74.4-17.6" fill="#4EA235" p-id="3572"></path><path d="M192.8 384.8c0.8 2.4-0.8 5.6-3.2 6.4-35.2 18.4-75.2 18.4-77.6 18.4-3.2 0-5.6-2.4-5.6-5.6 0-3.2 2.4-5.6 5.6-5.6 0 0 39.2 0 72-16.8 2.4-1.6 6.4 0 8 2.4 0.8 0 0.8 0 0.8 0.8z" fill="#3D7235" p-id="3573"></path><path d="M675.2 1007.2H328.8c-16 0-29.6-11.2-32.8-27.2l-36.8-184c-4-20.8 12-40 32.8-40H712c20.8 0 36.8 19.2 32.8 40l-36.8 184c-3.2 16-16.8 27.2-32.8 27.2z" fill="#824321" p-id="3574"></path><path d="M512.8 769.6c93.6 0 176.8 5.6 232 15.2-2.4-15.2-16-28-32.8-28H292.8c-18.4 0-32.8 14.4-33.6 32 52.8-12 147.2-19.2 253.6-19.2z" fill="#662C18" p-id="3575"></path><path d="M282.4 909.6h440l7.2-37.6H274.4z" fill="#B9824B" p-id="3576"></path><path d="M724.8 898.4l0.8-5.6c-3.2 1.6-6.4 4-8.8 7.2-4.8-6.4-12.8-10.4-20.8-10.4-8.8 0-16 4-20.8 10.4-4.8-6.4-12.8-10.4-20.8-10.4s-16 4-20.8 10.4c-4.8-6.4-12.8-10.4-20.8-10.4s-16 4-20.8 10.4c-4.8-6.4-12.8-10.4-20.8-10.4s-16 4-20.8 10.4c-4.8-6.4-12.8-10.4-20.8-10.4-8.8 0-16 4-20.8 10.4-4.8-6.4-12.8-10.4-20.8-10.4-8.8 0-16 4-20.8 10.4-4.8-6.4-12.8-10.4-20.8-10.4s-16 4-20.8 10.4c-4.8-6.4-12.8-10.4-20.8-10.4-8.8 0-16 4-20.8 10.4-4.8-6.4-12.8-10.4-20.8-10.4s-16 4-20.8 10.4c-4.8-6.4-12.8-10.4-20.8-10.4-8.8 0-16 4-20.8 10.4-4.8-6.4-12.8-9.6-20.8-10.4l0.8 4c7.2 0 13.6 4 17.6 9.6-1.6 2.4-2.4 4-3.2 6.4h4.8c0-0.8 0.8-1.6 0.8-2.4 0 0.8 0.8 1.6 0.8 2.4h4.8c-0.8-2.4-1.6-4.8-3.2-6.4 4-5.6 11.2-9.6 18.4-9.6 7.2 0 14.4 4 18.4 9.6-1.6 2.4-2.4 4-3.2 6.4h4.8c0-0.8 0.8-1.6 0.8-2.4 0 0.8 0.8 1.6 0.8 2.4h4.8c-0.8-2.4-1.6-4.8-3.2-6.4 4-5.6 11.2-9.6 18.4-9.6s14.4 4 18.4 9.6c-1.6 2.4-2.4 4-3.2 6.4h4.8c0-0.8 0.8-1.6 0.8-2.4 0 0.8 0.8 1.6 0.8 2.4h4.8c-0.8-2.4-1.6-4.8-3.2-6.4 4-5.6 11.2-9.6 18.4-9.6 7.2 0 14.4 4 18.4 9.6-1.6 2.4-2.4 4-3.2 6.4h4.8c0-0.8 0.8-1.6 0.8-2.4 0 0.8 0.8 1.6 0.8 2.4h4.8c-0.8-2.4-1.6-4.8-3.2-6.4 4-5.6 11.2-9.6 18.4-9.6s14.4 4 18.4 9.6c-1.6 2.4-2.4 4-3.2 6.4h4.8c0-0.8 0.8-1.6 0.8-2.4 0 0.8 0.8 1.6 0.8 2.4h4.8c-0.8-2.4-1.6-4.8-3.2-6.4 4-5.6 11.2-9.6 18.4-9.6 7.2 0 14.4 4 18.4 9.6-1.6 2.4-2.4 4-3.2 6.4h4.8c0-0.8 0.8-1.6 0.8-2.4 0 0.8 0.8 1.6 0.8 2.4h4.8c-0.8-2.4-1.6-4.8-3.2-6.4 4-5.6 11.2-9.6 18.4-9.6s14.4 4 18.4 9.6c-1.6 2.4-2.4 4-3.2 6.4h4.8c0-0.8 0.8-1.6 0.8-2.4 0 0.8 0.8 1.6 0.8 2.4h4.8c-0.8-2.4-1.6-4.8-3.2-6.4 4-5.6 11.2-9.6 18.4-9.6s14.4 4 18.4 9.6c-1.6 2.4-2.4 4-3.2 6.4h4.8c0-0.8 0.8-1.6 0.8-2.4 0 0.8 0.8 1.6 0.8 2.4h4.8c-0.8-2.4-1.6-4.8-3.2-6.4 4-5.6 11.2-9.6 18.4-9.6s14.4 4 18.4 9.6c-1.6 2.4-2.4 4-3.2 6.4h4.8c0-0.8 0.8-1.6 0.8-2.4 0 0.8 0.8 1.6 0.8 2.4h4.8c-0.8-2.4-1.6-4.8-3.2-6.4 4-5.6 11.2-9.6 18.4-9.6s14.4 4 18.4 9.6c-1.6 2.4-2.4 4-3.2 6.4h4.8c0-0.8 0.8-1.6 0.8-2.4 0 0.8 0.8 1.6 0.8 2.4h4c-0.8-2.4-1.6-4.8-3.2-6.4 4-5.6 11.2-9.6 18.4-9.6 7.2 0 14.4 4 18.4 9.6-1.6 2.4-2.4 4-3.2 6.4h4.8c0-0.8 0.8-1.6 0.8-2.4 0 0.8 0.8 1.6 0.8 2.4h4.8c-0.8-2.4-1.6-4.8-3.2-6.4 2.4-2.4 4-4 6.4-4.8z" fill="#F5B617" p-id="3577"></path><path d="M196 388.8m-66.4 0a66.4 66.4 0 1 0 132.8 0 66.4 66.4 0 1 0-132.8 0Z" fill="#F5A518" p-id="3578"></path><path d="M196 446.4c-32 0-57.6-25.6-57.6-57.6 0-1.6 0.8-2.4 2.4-2.4 1.6 0 2.4 0.8 2.4 2.4 0 28.8 24 52.8 52.8 52.8 1.6 0 2.4 0.8 2.4 2.4 0 1.6-1.6 2.4-2.4 2.4z" fill="#FAD7A0" p-id="3579"></path><path d="M765.6 372.8m-66.4 0a66.4 66.4 0 1 0 132.8 0 66.4 66.4 0 1 0-132.8 0Z" fill="#F5A518" p-id="3580"></path><path d="M765.6 430.4c-32 0-57.6-25.6-57.6-57.6 0-1.6 0.8-2.4 2.4-2.4 1.6 0 2.4 0.8 2.4 2.4 0 28.8 24 52.8 52.8 52.8 1.6 0 2.4 0.8 2.4 2.4-0.8 0.8-1.6 2.4-2.4 2.4z" fill="#FAD7A0" p-id="3581"></path><path d="M699.2 604m-66.4 0a66.4 66.4 0 1 0 132.8 0 66.4 66.4 0 1 0-132.8 0Z" fill="#F5A518" p-id="3582"></path><path d="M699.2 661.6c-32 0-57.6-25.6-57.6-57.6 0-1.6 0.8-2.4 2.4-2.4s2.4 0.8 2.4 2.4c0 28.8 24 52.8 52.8 52.8 1.6 0 2.4 0.8 2.4 2.4 0 1.6-1.6 2.4-2.4 2.4z" fill="#FAD7A0" p-id="3583"></path><path d="M275.2 656.8m-66.4 0a66.4 66.4 0 1 0 132.8 0 66.4 66.4 0 1 0-132.8 0Z" fill="#F5A518" p-id="3584"></path><path d="M275.2 713.6c-32 0-57.6-25.6-57.6-57.6 0-1.6 0.8-2.4 2.4-2.4 1.6 0 2.4 0.8 2.4 2.4 0 28.8 24 52.8 52.8 52.8 1.6 0 2.4 0.8 2.4 2.4 0 1.6-0.8 2.4-2.4 2.4z" fill="#FAD7A0" p-id="3585"></path><path d="M498.4 231.2c-40.8 32-102.4 21.6-102.4 21.6s4-63.2 44-95.2S542.4 136 542.4 136s-4 63.2-44 95.2z" fill="#4EA235" p-id="3586"></path><path d="M388.8 258.4v-5.6c0-2.4 4-65.6 46.4-99.2 42.4-33.6 104.8-23.2 107.2-23.2l4.8 0.8v5.6c0 2.4-4 65.6-46.4 99.2-42.4 33.6-104.8 23.2-107.2 23.2l-4.8-0.8zM536 140.8c-16-1.6-61.6-3.2-92.8 21.6-31.2 24.8-39.2 70.4-41.6 85.6 16 1.6 61.6 3.2 92.8-21.6s39.2-69.6 41.6-85.6z" fill="#3D7235" p-id="3587"></path><path d="M461.6 202.4s-38.4 16-63.2 48" fill="#4EA235" p-id="3588"></path><path d="M394.4 254.4c-1.6-2.4-1.6-4.8 0-7.2 25.6-32 64-48.8 65.6-49.6 3.2-1.6 6.4 0 8 3.2 1.6 3.2 0 6.4-3.2 8 0 0-36.8 16-60.8 46.4-2.4 2.4-5.6 3.2-8 0.8l-1.6-1.6z" fill="#3D7235" p-id="3589"></path><path d="M436.8 156.8c-0.8 52-48 93.6-48 93.6s-46.4-42.4-46.4-94.4 48-93.6 48-93.6 47.2 42.4 46.4 94.4z" fill="#4EA235" p-id="3590"></path><path d="M388.8 258.4l-4-3.2c-1.6-1.6-48.8-44.8-48-98.4 0.8-53.6 48-96 49.6-97.6l4-3.2 4 3.2c1.6 1.6 48.8 44.8 48 98.4-0.8 53.6-48 96-49.6 97.6l-4 3.2z m1.6-188c-11.2 11.2-41.6 45.6-41.6 85.6 0 40 29.6 74.4 40 86.4 11.2-11.2 41.6-45.6 41.6-85.6 0.8-40-28.8-75.2-40-86.4z" fill="#3D7235" p-id="3591"></path><path d="M392 166.4s-11.2 40-2.4 79.2" fill="#4EA235" p-id="3592"></path><path d="M388.8 251.2c-2.4 0-4.8-1.6-5.6-4.8-8.8-40 2.4-80 2.4-82.4 0.8-3.2 4-4.8 7.2-4 3.2 0.8 4.8 4 4 7.2 0 0-10.4 39.2-2.4 76 0.8 3.2-1.6 6.4-4.8 7.2 0.8 0.8 0 0.8-0.8 0.8z" fill="#3D7235" p-id="3593"></path><path d="M351.2 151.2c36.8 36.8 33.6 100 33.6 100s-63.2 3.2-100-32.8-33.6-100-33.6-100 63.2-3.2 100 32.8z" fill="#4EA235" p-id="3594"></path><path d="M390.4 256.8h-5.6c-2.4 0-66.4 3.2-104-34.4-38.4-38.4-35.2-101.6-35.2-104v-5.6h5.6c2.4 0 66.4-3.2 104 34.4 38.4 38.4 35.2 101.6 35.2 104v5.6zM257.6 124c0 16 3.2 61.6 32 89.6 28 28 74.4 31.2 89.6 31.2 0-16-3.2-61.6-32-89.6-28-28-74.4-30.4-89.6-31.2z" fill="#3D7235" p-id="3595"></path><path d="M327.2 190.4s20.8 36 54.4 57.6" fill="#4EA235" p-id="3596"></path><path d="M385.6 252c-1.6 1.6-4.8 2.4-7.2 0.8-35.2-21.6-56-57.6-56.8-59.2-1.6-2.4-0.8-6.4 2.4-8 3.2-1.6 6.4-0.8 8 2.4 0 0 20 35.2 52.8 55.2 2.4 1.6 3.2 5.6 1.6 8l-0.8 0.8z" fill="#3D7235" p-id="3597"></path><path d="M279.2 238.4c50.4-13.6 103.2 21.6 103.2 21.6s-28.8 56-78.4 69.6c-51.2 12.8-104-21.6-104-21.6s28.8-56 79.2-69.6z" fill="#4EA235" p-id="3598"></path><path d="M389.6 257.6l-2.4 4.8c-1.6 2.4-30.4 58.4-82.4 72.8-52 13.6-105.6-20.8-107.2-22.4l-4-3.2 2.4-4.8c1.6-2.4 30.4-58.4 82.4-72.8 52-13.6 105.6 20.8 107.2 22.4l4 3.2z m-181.6 48c13.6 8 54.4 28 93.6 17.6 38.4-10.4 64-48 72-61.6-13.6-8-54.4-28-93.6-17.6-38.4 10.4-64 48-72 61.6z" fill="#3D7235" p-id="3599"></path><path d="M300 279.2s41.6 0 76.8-18.4" fill="#4EA235" p-id="3600"></path><path d="M383.2 259.2c0.8 2.4-0.8 5.6-3.2 6.4-36.8 19.2-78.4 19.2-80 19.2-3.2 0-5.6-2.4-5.6-5.6 0-3.2 2.4-5.6 5.6-5.6 0 0 40.8 0 74.4-17.6 3.2-1.6 6.4 0 8 2.4l0.8 0.8z" fill="#3D7235" p-id="3601"></path><path d="M604 411.2c-42.4-31.2-49.6-94.4-49.6-94.4s62.4-13.6 105.6 17.6c42.4 31.2 49.6 94.4 49.6 94.4s-63.2 13.6-105.6-17.6z" fill="#4EA235" p-id="3602"></path><path d="M548 312l5.6-0.8c2.4-0.8 65.6-13.6 110.4 18.4 44.8 32 51.2 96 52 99.2l0.8 5.6-5.6 0.8c-2.4 0.8-65.6 13.6-110.4-18.4-44-32-51.2-96-52-99.2l-0.8-5.6z m154.4 112c-2.4-16-13.6-60.8-46.4-84.8s-79.2-19.2-95.2-16.8c2.4 16 13.6 60.8 46.4 84.8 32.8 23.2 79.2 19.2 95.2 16.8z" fill="#3D7235" p-id="3603"></path><path d="M622.4 368s-26.4-32.8-64-48.8" fill="#4EA235" p-id="3604"></path><path d="M553.6 316c1.6-2.4 4.8-3.2 7.2-1.6 38.4 16 65.6 48.8 66.4 50.4 2.4 2.4 1.6 6.4-0.8 8-2.4 2.4-6.4 1.6-8.8-0.8 0 0-25.6-32-61.6-47.2-3.2-1.6-4.8-4.8-3.2-8l0.8-0.8z" fill="#3D7235" p-id="3605"></path><path d="M660 331.2c-51.2 13.6-104.8-21.6-104.8-21.6s28.8-57.6 80-71.2c51.2-13.6 104.8 21.6 104.8 21.6s-28.8 57.6-80 71.2z" fill="#4EA235" p-id="3606"></path><path d="M548 312l2.4-4.8c1.6-2.4 30.4-60 83.2-74.4 52.8-14.4 107.2 20.8 109.6 22.4l4.8 3.2-2.4 4.8c-1.6 2.4-30.4 60-83.2 74.4-52.8 14.4-107.2-20.8-109.6-22.4l-4.8-3.2z m184-49.6c-13.6-8-56-28-95.2-17.6-39.2 10.4-64.8 49.6-73.6 63.2 13.6 8 56 28 95.2 17.6s65.6-49.6 73.6-63.2z" fill="#3D7235" p-id="3607"></path><path d="M638.4 289.6s-42.4 0-78.4 19.2" fill="#4EA235" p-id="3608"></path><path d="M554.4 310.4c-0.8-2.4 0.8-5.6 3.2-7.2 36.8-20 79.2-20 80.8-20 3.2 0 5.6 2.4 5.6 5.6 0 3.2-2.4 5.6-5.6 5.6 0 0-40.8 0-75.2 18.4-3.2 1.6-6.4 0.8-8-2.4-0.8 0.8-0.8 0.8-0.8 0z" fill="#3D7235" p-id="3609"></path><path d="M641.6 246.4c-25.6 45.6-88.8 60-88.8 60s-20.8-60.8 4.8-106.4 88.8-60 88.8-60 21.6 60-4.8 106.4z" fill="#4EA235" p-id="3610"></path><path d="M549.6 312.8l-1.6-4.8c-0.8-2.4-21.6-64 5.6-111.2 27.2-48 89.6-62.4 92-62.4l5.6-0.8 1.6 4.8c0.8 2.4 21.6 64-5.6 111.2-27.2 48-89.6 62.4-92 62.4l-5.6 0.8z m93.6-165.6c-15.2 4.8-59.2 20-79.2 55.2s-10.4 80.8-6.4 96.8c15.2-4.8 59.2-20 79.2-55.2 20-36 10.4-81.6 6.4-96.8z" fill="#3D7235" p-id="3611"></path><path d="M596.8 232.8s-29.6 29.6-40.8 68.8" fill="#4EA235" p-id="3612"></path><path d="M552.8 307.2c-2.4-1.6-4-4-2.4-7.2 12-40 41.6-70.4 42.4-72 2.4-2.4 6.4-2.4 8.8 0 2.4 2.4 2.4 6.4 0 8.8 0 0-28.8 29.6-40 66.4-0.8 3.2-4 4.8-7.2 4-0.8 0.8-0.8 0-1.6 0z" fill="#3D7235" p-id="3613"></path><path d="M536.8 199.2c26.4 45.6 7.2 106.4 7.2 106.4s-63.2-12.8-89.6-58.4c-26.4-45.6-7.2-106.4-7.2-106.4s63.2 12.8 89.6 58.4z" fill="#4EA235" p-id="3614"></path><path d="M548 312l-5.6-0.8c-2.4-0.8-65.6-13.6-93.6-60.8-28-47.2-8.8-108.8-8-111.2l1.6-4.8 5.6 0.8c2.4 0.8 65.6 13.6 93.6 60.8 28 47.2 8.8 108.8 8 111.2l-1.6 4.8z m-96-164c-4 15.2-12.8 61.6 8 96 20.8 35.2 64.8 49.6 80 54.4 4-15.2 12.8-61.6-8-96-20.8-35.2-64.8-50.4-80-54.4z" fill="#3D7235" p-id="3615"></path><path d="M503.2 231.2s11.2 40.8 39.2 70.4" fill="#4EA235" p-id="3616"></path><path d="M544.8 306.4c-2.4 1.6-5.6 0.8-7.2-0.8-28.8-30.4-40-71.2-40.8-72.8-0.8-3.2 0.8-6.4 4-7.2 3.2-0.8 6.4 0.8 7.2 4 0 0 11.2 40 37.6 68 2.4 2.4 2.4 6.4 0 8.8h-0.8z" fill="#3D7235" p-id="3617"></path><path d="M388 545.6c48-24 108 0 108 0S479.2 608 431.2 632s-108 0-108 0 16.8-63.2 64.8-86.4z" fill="#4EA235" p-id="3618"></path><path d="M503.2 541.6l-1.6 5.6c-0.8 2.4-18.4 65.6-68 90.4-49.6 24.8-110.4 0.8-112.8 0l-4.8-2.4 1.6-5.6c0.8-2.4 18.4-65.6 68-90.4 49.6-24.8 110.4-0.8 112.8 0l4.8 2.4zM330.4 628c15.2 4.8 60.8 16.8 97.6-1.6 36.8-18.4 55.2-62.4 60-77.6-15.2-4.8-60.8-16.8-97.6 1.6s-54.4 62.4-60 77.6z" fill="#3D7235" p-id="3619"></path><path d="M417.6 582.4s41.6-8 73.6-34.4" fill="#4EA235" p-id="3620"></path><path d="M497.6 544.8c1.6 2.4 0.8 5.6-1.6 7.2-32.8 27.2-75.2 35.2-76.8 36-3.2 0.8-6.4-1.6-7.2-4.8-0.8-3.2 1.6-6.4 4.8-7.2 0 0 40.8-8 71.2-33.6 2.4-2.4 6.4-1.6 8.8 0.8 0 0.8 0 1.6 0.8 1.6z" fill="#3D7235" p-id="3621"></path><path d="M432.8 633.6c12-52 68-84 68-84s37.6 52.8 26.4 104.8-68 84-68 84-37.6-52.8-26.4-104.8z" fill="#4EA235" p-id="3622"></path><path d="M503.2 541.6l3.2 4.8c1.6 2.4 39.2 56 27.2 109.6-12 54.4-68.8 86.4-71.2 88l-4.8 2.4-3.2-4.8c-1.6-2.4-39.2-56-27.2-109.6 12-54.4 68.8-86.4 71.2-88l4.8-2.4z m-42.4 188.8c13.6-8.8 52-36.8 60.8-76.8 8.8-40-13.6-81.6-22.4-95.2-13.6 8.8-52 36.8-60.8 76.8s14.4 81.6 22.4 95.2z" fill="#3D7235" p-id="3623"></path><path d="M480.8 633.6s20-37.6 20-79.2" fill="#4EA235" p-id="3624"></path><path d="M501.6 548.8c2.4 0.8 4.8 3.2 4.8 5.6 0 42.4-20 80.8-20.8 82.4-1.6 3.2-4.8 4-8 2.4s-4-5.6-2.4-8c0 0 19.2-36.8 19.2-76 0-3.2 2.4-6.4 6.4-6.4 0-0.8 0.8-0.8 0.8 0z" fill="#3D7235" p-id="3625"></path><path d="M518.4 657.6c-28.8-44.8-12-107.2-12-107.2s64 10.4 93.6 55.2c28.8 44.8 12 107.2 12 107.2s-64.8-10.4-93.6-55.2z" fill="#4EA235" p-id="3626"></path><path d="M501.6 543.2l5.6 0.8c2.4 0.8 67.2 11.2 97.6 57.6 30.4 46.4 13.6 109.6 12.8 112.8l-1.6 4.8-5.6-0.8c-2.4-0.8-67.2-11.2-97.6-57.6-30.4-46.4-13.6-109.6-12.8-112.8l1.6-4.8z m105.6 161.6c3.2-16 9.6-62.4-12.8-96.8s-68-47.2-84-51.2c-3.2 16-9.6 62.4 12.8 96.8s68 48 84 51.2z" fill="#3D7235" p-id="3627"></path><path d="M551.2 623.2s-12.8-40.8-42.4-69.6" fill="#4EA235" p-id="3628"></path><path d="M505.6 548.8c2.4-1.6 5.6-1.6 7.2 0.8 30.4 29.6 44 70.4 44 72 0.8 3.2-0.8 6.4-4 7.2-3.2 0.8-6.4-0.8-8-4 0 0-12.8-40-40.8-67.2-2.4-2.4-2.4-6.4 0-8.8 0.8 0.8 0.8 0 1.6 0z" fill="#3D7235" p-id="3629"></path><path d="M610.4 585.6c-53.6 2.4-99.2-44-99.2-44s40.8-50.4 94.4-52.8c53.6-2.4 99.2 44 99.2 44s-40.8 50.4-94.4 52.8z" fill="#4EA235" p-id="3630"></path><path d="M503.2 542.4l3.2-4c1.6-2.4 43.2-52.8 99.2-55.2 55.2-2.4 101.6 43.2 104 45.6l4 4-3.2 4c-1.6 2.4-43.2 52.8-99.2 55.2-55.2 2.4-101.6-43.2-104-45.6l-4-4zM696 532.8c-12-10.4-48.8-40-90.4-38.4-41.6 1.6-75.2 34.4-86.4 46.4 12 10.4 48.8 40 90.4 38.4 41.6-1.6 75.2-34.4 86.4-46.4z" fill="#3D7235" p-id="3631"></path><path d="M597.6 540s-41.6-9.6-81.6 1.6" fill="#4EA235" p-id="3632"></path><path d="M509.6 541.6c0-2.4 1.6-5.6 4.8-6.4 40.8-11.2 82.4-2.4 84.8-1.6 3.2 0.8 5.6 4 4.8 7.2-0.8 3.2-4 5.6-7.2 4.8 0 0-40.8-8.8-78.4 1.6-3.2 0.8-6.4-0.8-7.2-4-1.6-0.8-1.6-0.8-1.6-1.6z" fill="#3D7235" p-id="3633"></path><path d="M395.2 536.8c-35.2 28-88 18.4-88 18.4s3.2-54.4 37.6-81.6 88-18.4 88-18.4-2.4 53.6-37.6 81.6z" fill="#4EA235" p-id="3634"></path><path d="M302.4 560v-4.8c0-2.4 4-56.8 40-85.6 36-28.8 89.6-20 92-20l4.8 0.8v4.8c0 2.4-4 56.8-40 85.6-36 28.8-89.6 20-92 20l-4.8-0.8z m125.6-100.8c-13.6-1.6-52.8-3.2-79.2 18.4-27.2 21.6-33.6 60-35.2 73.6 13.6 1.6 52.8 3.2 79.2-18.4 26.4-20.8 33.6-60 35.2-73.6z" fill="#3D7235" p-id="3635"></path><path d="M364.8 512s-32.8 14.4-54.4 40.8" fill="#4EA235" p-id="3636"></path><path d="M306.4 556.8c-1.6-1.6-1.6-4.8 0-6.4 22.4-28 54.4-41.6 56-42.4 2.4-0.8 5.6 0 6.4 2.4 0.8 2.4 0 5.6-2.4 6.4 0 0-32 13.6-52 39.2-1.6 2.4-4.8 3.2-8 0.8 0.8 0 0 0 0 0z" fill="#3D7235" p-id="3637"></path><path d="M343.2 472.8c0 44.8-40.8 80-40.8 80s-40-36.8-40-80.8c0-44.8 40.8-80 40.8-80s40 36 40 80.8z" fill="#4EA235" p-id="3638"></path><path d="M302.4 560l-3.2-3.2c-1.6-1.6-41.6-38.4-41.6-84.8s40.8-82.4 42.4-84l3.2-3.2 3.2 3.2c1.6 1.6 41.6 38.4 41.6 84.8s-40.8 82.4-42.4 84l-3.2 3.2z m0.8-160.8c-9.6 9.6-36 39.2-36 73.6 0 34.4 25.6 64 34.4 73.6 9.6-9.6 36-39.2 36-73.6s-24.8-64-34.4-73.6z" fill="#3D7235" p-id="3639"></path><path d="M304.8 481.6s-9.6 34.4-2.4 68" fill="#4EA235" p-id="3640"></path><path d="M302.4 554.4c-2.4 0-4-1.6-4.8-4-7.2-34.4 1.6-68.8 2.4-70.4 0.8-2.4 3.2-4 6.4-3.2 2.4 0.8 4 3.2 3.2 6.4 0 0-9.6 33.6-2.4 65.6 0.8 2.4-0.8 5.6-4 6.4 0-0.8-0.8-0.8-0.8-0.8z" fill="#3D7235" p-id="3641"></path><path d="M269.6 468.8c31.2 31.2 28.8 85.6 28.8 85.6s-54.4 3.2-85.6-28S184 440 184 440s54.4-3.2 85.6 28.8z" fill="#4EA235" p-id="3642"></path><path d="M303.2 558.4h-4.8c-2.4 0-56.8 3.2-89.6-29.6-32.8-32.8-30.4-87.2-30.4-89.6v-4.8h4.8c2.4 0 56.8-3.2 89.6 29.6 32.8 32.8 30.4 87.2 30.4 89.6v4.8zM188.8 444.8c0 13.6 3.2 52.8 27.2 76.8s63.2 27.2 76.8 27.2c0-13.6-3.2-52.8-27.2-76.8s-63.2-27.2-76.8-27.2z" fill="#3D7235" p-id="3643"></path><path d="M248.8 501.6s17.6 31.2 47.2 48.8" fill="#4EA235" p-id="3644"></path><path d="M299.2 554.4c-1.6 1.6-4 1.6-6.4 0.8-29.6-18.4-48-49.6-48.8-51.2-1.6-2.4-0.8-5.6 1.6-7.2 2.4-1.6 5.6-0.8 7.2 1.6 0 0 17.6 30.4 45.6 47.2 2.4 1.6 3.2 4.8 1.6 7.2 0 1.6-0.8 1.6-0.8 1.6z" fill="#3D7235" p-id="3645"></path><path d="M207.2 543.2c43.2-11.2 88 18.4 88 18.4s-24.8 48-68 60c-43.2 11.2-88-18.4-88-18.4s24.8-48.8 68-60z" fill="#4EA235" p-id="3646"></path><path d="M302.4 559.2l-2.4 4c-0.8 2.4-26.4 50.4-71.2 62.4-44.8 12-90.4-17.6-92-19.2l-4-2.4 2.4-4c0.8-2.4 26.4-50.4 71.2-62.4 44.8-12 90.4 17.6 92 19.2l4 2.4z m-156 41.6c12 6.4 47.2 24 80 15.2 33.6-8.8 55.2-41.6 62.4-52.8-12-6.4-47.2-24-80-15.2s-55.2 41.6-62.4 52.8z" fill="#3D7235" p-id="3647"></path><path d="M225.6 578.4s35.2 0 66.4-16" fill="#4EA235" p-id="3648"></path><path d="M296.8 560.8c0.8 2.4-0.8 4.8-2.4 5.6-31.2 16.8-67.2 16-68.8 16-2.4 0-4.8-2.4-4.8-4.8s2.4-4.8 4.8-4.8c0 0 34.4 0 64-15.2 2.4-1.6 5.6 0 7.2 2.4v0.8z" fill="#3D7235" p-id="3649"></path></svg>